<mxfile host="app.diagrams.net" modified="2021-04-23T10:58:53.388Z" agent="5.0 (Macintosh; Intel Mac OS X 10_15_6) AppleWebKit/605.1.15 (KHTML, like Gecko) Version/14.0.3 Safari/605.1.15" etag="xqDQzUQezxwWHtxQPOgx" version="14.6.6" type="github">
  <diagram id="2snBoPdIVIojASlzs4ji" name="Page-1">
    <mxGraphModel dx="946" dy="544" grid="1" gridSize="10" guides="1" tooltips="1" connect="1" arrows="1" fold="1" page="1" pageScale="1" pageWidth="827" pageHeight="1169" math="0" shadow="0">
      <root>
        <mxCell id="0" />
        <mxCell id="1" parent="0" />
        <mxCell id="pNh5RsfMhSHscX6KeP78-1" value="의사" style="shape=umlActor;verticalLabelPosition=bottom;verticalAlign=top;html=1;outlineConnect=0;" vertex="1" parent="1">
          <mxGeometry x="130" y="200" width="30" height="60" as="geometry" />
        </mxCell>
        <mxCell id="pNh5RsfMhSHscX6KeP78-2" value="관리자" style="shape=umlActor;verticalLabelPosition=bottom;verticalAlign=top;html=1;outlineConnect=0;" vertex="1" parent="1">
          <mxGeometry x="660" y="200" width="30" height="60" as="geometry" />
        </mxCell>
        <mxCell id="pNh5RsfMhSHscX6KeP78-10" style="edgeStyle=orthogonalEdgeStyle;rounded=0;orthogonalLoop=1;jettySize=auto;html=1;entryX=1;entryY=0.5;entryDx=0;entryDy=0;" edge="1" parent="1" source="pNh5RsfMhSHscX6KeP78-3" target="pNh5RsfMhSHscX6KeP78-7">
          <mxGeometry relative="1" as="geometry">
            <Array as="points">
              <mxPoint x="330" y="195" />
              <mxPoint x="330" y="120" />
            </Array>
          </mxGeometry>
        </mxCell>
        <mxCell id="pNh5RsfMhSHscX6KeP78-14" style="edgeStyle=orthogonalEdgeStyle;rounded=0;orthogonalLoop=1;jettySize=auto;html=1;entryX=0;entryY=0.25;entryDx=0;entryDy=0;endArrow=none;endFill=0;" edge="1" parent="1" source="pNh5RsfMhSHscX6KeP78-3" target="pNh5RsfMhSHscX6KeP78-9">
          <mxGeometry relative="1" as="geometry" />
        </mxCell>
        <mxCell id="pNh5RsfMhSHscX6KeP78-17" style="edgeStyle=orthogonalEdgeStyle;rounded=0;orthogonalLoop=1;jettySize=auto;html=1;endArrow=none;endFill=0;" edge="1" parent="1" source="pNh5RsfMhSHscX6KeP78-3" target="pNh5RsfMhSHscX6KeP78-16">
          <mxGeometry relative="1" as="geometry" />
        </mxCell>
        <mxCell id="pNh5RsfMhSHscX6KeP78-20" style="edgeStyle=orthogonalEdgeStyle;rounded=0;orthogonalLoop=1;jettySize=auto;html=1;endArrow=block;endFill=1;" edge="1" parent="1" source="pNh5RsfMhSHscX6KeP78-3" target="pNh5RsfMhSHscX6KeP78-6">
          <mxGeometry relative="1" as="geometry" />
        </mxCell>
        <mxCell id="pNh5RsfMhSHscX6KeP78-3" value="&lt;&lt; control &gt;&gt;&#xa;controller" style="swimlane;startSize=50;" vertex="1" parent="1">
          <mxGeometry x="349" y="160" width="130" height="70" as="geometry" />
        </mxCell>
        <mxCell id="pNh5RsfMhSHscX6KeP78-19" style="edgeStyle=orthogonalEdgeStyle;rounded=0;orthogonalLoop=1;jettySize=auto;html=1;endArrow=block;endFill=1;" edge="1" parent="1" source="pNh5RsfMhSHscX6KeP78-6">
          <mxGeometry relative="1" as="geometry">
            <mxPoint x="590" y="240" as="targetPoint" />
          </mxGeometry>
        </mxCell>
        <mxCell id="pNh5RsfMhSHscX6KeP78-6" value="&lt;&lt; entity &gt;&gt;&#xa;database connection" style="swimlane;startSize=40;" vertex="1" parent="1">
          <mxGeometry x="414" y="260" width="146" height="60" as="geometry" />
        </mxCell>
        <mxCell id="pNh5RsfMhSHscX6KeP78-25" value="" style="verticalLabelPosition=bottom;verticalAlign=top;html=1;shape=mxgraph.basic.smiley" vertex="1" parent="pNh5RsfMhSHscX6KeP78-6">
          <mxGeometry x="-15" y="-10" width="30" height="30" as="geometry" />
        </mxCell>
        <mxCell id="pNh5RsfMhSHscX6KeP78-11" style="edgeStyle=orthogonalEdgeStyle;rounded=0;orthogonalLoop=1;jettySize=auto;html=1;" edge="1" parent="1" source="pNh5RsfMhSHscX6KeP78-7" target="pNh5RsfMhSHscX6KeP78-1">
          <mxGeometry relative="1" as="geometry" />
        </mxCell>
        <mxCell id="pNh5RsfMhSHscX6KeP78-7" value="&lt;&lt; boundary &gt;&gt;&#xa;피드백 요청 페이지" style="swimlane;startSize=50;" vertex="1" parent="1">
          <mxGeometry x="194" y="90" width="116" height="60" as="geometry" />
        </mxCell>
        <mxCell id="pNh5RsfMhSHscX6KeP78-21" value="" style="verticalLabelPosition=bottom;verticalAlign=top;html=1;shape=mxgraph.basic.smiley" vertex="1" parent="pNh5RsfMhSHscX6KeP78-7">
          <mxGeometry x="-14" y="-10" width="30" height="30" as="geometry" />
        </mxCell>
        <mxCell id="pNh5RsfMhSHscX6KeP78-12" style="edgeStyle=orthogonalEdgeStyle;rounded=0;orthogonalLoop=1;jettySize=auto;html=1;endArrow=none;endFill=0;" edge="1" parent="1" source="pNh5RsfMhSHscX6KeP78-8" target="pNh5RsfMhSHscX6KeP78-1">
          <mxGeometry relative="1" as="geometry" />
        </mxCell>
        <mxCell id="pNh5RsfMhSHscX6KeP78-13" style="edgeStyle=orthogonalEdgeStyle;rounded=0;orthogonalLoop=1;jettySize=auto;html=1;entryX=0;entryY=0.5;entryDx=0;entryDy=0;endArrow=none;endFill=0;" edge="1" parent="1" source="pNh5RsfMhSHscX6KeP78-8" target="pNh5RsfMhSHscX6KeP78-6">
          <mxGeometry relative="1" as="geometry" />
        </mxCell>
        <mxCell id="pNh5RsfMhSHscX6KeP78-8" value="&lt;&lt; boundary &gt;&gt;&#xa;피드백 viewer" style="swimlane;startSize=50;" vertex="1" parent="1">
          <mxGeometry x="220" y="260" width="120" height="60" as="geometry" />
        </mxCell>
        <mxCell id="pNh5RsfMhSHscX6KeP78-24" value="" style="verticalLabelPosition=bottom;verticalAlign=top;html=1;shape=mxgraph.basic.smiley" vertex="1" parent="pNh5RsfMhSHscX6KeP78-8">
          <mxGeometry x="-10" y="-10" width="30" height="30" as="geometry" />
        </mxCell>
        <mxCell id="pNh5RsfMhSHscX6KeP78-15" style="edgeStyle=orthogonalEdgeStyle;rounded=0;orthogonalLoop=1;jettySize=auto;html=1;entryX=0.5;entryY=0;entryDx=0;entryDy=0;entryPerimeter=0;endArrow=none;endFill=0;" edge="1" parent="1" source="pNh5RsfMhSHscX6KeP78-9" target="pNh5RsfMhSHscX6KeP78-2">
          <mxGeometry relative="1" as="geometry" />
        </mxCell>
        <mxCell id="pNh5RsfMhSHscX6KeP78-9" value="&lt;&lt; boundary &gt;&gt;&#xa;결과지 요청" style="swimlane;startSize=50;" vertex="1" parent="1">
          <mxGeometry x="520" y="90" width="110" height="60" as="geometry" />
        </mxCell>
        <mxCell id="pNh5RsfMhSHscX6KeP78-18" style="edgeStyle=orthogonalEdgeStyle;rounded=0;orthogonalLoop=1;jettySize=auto;html=1;entryX=0.5;entryY=0.5;entryDx=0;entryDy=0;entryPerimeter=0;endArrow=block;endFill=1;" edge="1" parent="1" source="pNh5RsfMhSHscX6KeP78-16" target="pNh5RsfMhSHscX6KeP78-2">
          <mxGeometry relative="1" as="geometry" />
        </mxCell>
        <mxCell id="pNh5RsfMhSHscX6KeP78-16" value="&lt;&lt; boundary &gt;&gt;&#xa;결과지 viewer" style="swimlane;startSize=50;" vertex="1" parent="1">
          <mxGeometry x="520" y="180" width="110" height="60" as="geometry" />
        </mxCell>
        <mxCell id="pNh5RsfMhSHscX6KeP78-26" value="" style="verticalLabelPosition=bottom;verticalAlign=top;html=1;shape=mxgraph.basic.smiley" vertex="1" parent="pNh5RsfMhSHscX6KeP78-16">
          <mxGeometry x="-10" y="-10" width="30" height="30" as="geometry" />
        </mxCell>
        <mxCell id="pNh5RsfMhSHscX6KeP78-27" value="" style="verticalLabelPosition=bottom;verticalAlign=top;html=1;shape=mxgraph.basic.smiley" vertex="1" parent="1">
          <mxGeometry x="510" y="80" width="30" height="30" as="geometry" />
        </mxCell>
        <mxCell id="pNh5RsfMhSHscX6KeP78-28" value="" style="verticalLabelPosition=bottom;verticalAlign=top;html=1;shape=mxgraph.basic.smiley" vertex="1" parent="1">
          <mxGeometry x="340" y="150" width="30" height="30" as="geometry" />
        </mxCell>
        <mxCell id="pNh5RsfMhSHscX6KeP78-29" value="conveys request" style="text;html=1;align=center;verticalAlign=middle;resizable=0;points=[];autosize=1;strokeColor=none;" vertex="1" parent="1">
          <mxGeometry x="314" y="120" width="100" height="20" as="geometry" />
        </mxCell>
        <mxCell id="pNh5RsfMhSHscX6KeP78-30" value="conveys request" style="text;html=1;align=center;verticalAlign=middle;resizable=0;points=[];autosize=1;strokeColor=none;" vertex="1" parent="1">
          <mxGeometry x="625" y="100" width="100" height="20" as="geometry" />
        </mxCell>
        <mxCell id="pNh5RsfMhSHscX6KeP78-31" value="conveys request" style="text;html=1;align=center;verticalAlign=middle;resizable=0;points=[];autosize=1;strokeColor=none;" vertex="1" parent="1">
          <mxGeometry x="390" y="230" width="100" height="20" as="geometry" />
        </mxCell>
        <mxCell id="pNh5RsfMhSHscX6KeP78-32" value="provide data" style="text;html=1;align=center;verticalAlign=middle;resizable=0;points=[];autosize=1;strokeColor=none;" vertex="1" parent="1">
          <mxGeometry x="340" y="290" width="80" height="20" as="geometry" />
        </mxCell>
        <mxCell id="pNh5RsfMhSHscX6KeP78-33" value="provide data" style="text;html=1;align=center;verticalAlign=middle;resizable=0;points=[];autosize=1;strokeColor=none;" vertex="1" parent="1">
          <mxGeometry x="560" y="290" width="80" height="20" as="geometry" />
        </mxCell>
      </root>
    </mxGraphModel>
  </diagram>
</mxfile>
